ply
format ascii 1.0
comment Written with hapPLY (https://github.com/nmwsharp/happly)
element vertex 8
property float x
property float y
property float z
property uchar red
property uchar green
property uchar blue
property uchar alpha
element face 12
property list uchar uint vertex_indices
end_header
0 0 0 0 0 0 255
1 0 0 100 0 0 255
0 1 0 0 100 0 255
0 0 1 0 0 100 255
1 1 0 100 100 0 255
1 0 1 100 0 100 255
0 1 1 0 100 100 255
1 1 1 100 100 100 255
3 0 2 1
3 0 1 3
3 0 2 3
3 1 5 3
3 1 7 5
3 1 4 7
3 1 2 4
3 2 6 3
3 5 7 6
3 3 5 6
3 2 4 7
3 2 7 6
